<svg width="156" height="50" viewBox="0 0 156 50" fill="none" xmlns="http://www.w3.org/2000/svg">
<path d="M26.3015 26.3051V18.8224L31.8534 21.1246L26.3015 26.3051ZM15.7024 36.1954L22.5111 24.2846L25.4979 27.0557L15.7024 36.1954ZM11.8197 13.75L25.8305 18.4754V26.7447L11.8197 13.75ZM34.6933 18.4754H26.6226L36.9982 22.7777L34.6933 18.4754Z" fill="#F7B501"/>
<path d="M24.409 4.82143C20.4357 4.82143 16.5516 5.99964 13.2479 8.20708C9.94428 10.4145 7.36939 13.552 5.84888 17.2229C4.32837 20.8937 3.93053 24.933 4.70568 28.8299C5.48083 32.7269 7.39415 36.3064 10.2037 39.116C13.0132 41.9255 16.5928 43.8388 20.4897 44.614C24.3867 45.3891 28.426 44.9913 32.0968 43.4708C35.7676 41.9503 38.9051 39.3754 41.1126 36.0717C43.32 32.7681 44.4982 28.884 44.4982 24.9107C44.4924 19.5845 42.374 14.4781 38.6078 10.7119C34.8416 6.9457 29.7352 4.82728 24.409 4.82143ZM24.409 43.3928C20.7535 43.3928 17.1802 42.3089 14.1408 40.278C11.1015 38.2472 8.73255 35.3607 7.33369 31.9835C5.93482 28.6063 5.56881 24.8902 6.28195 21.305C6.99508 17.7198 8.75534 14.4266 11.3401 11.8419C13.9249 9.25709 17.2181 7.49684 20.8033 6.7837C24.3885 6.07056 28.1046 6.43657 31.4818 7.83544C34.8589 9.23431 37.7455 11.6032 39.7763 14.6426C41.8071 17.682 42.8911 21.2553 42.8911 24.9107C42.8858 29.8108 40.9368 34.5088 37.4719 37.9737C34.007 41.4386 29.3091 43.3875 24.409 43.3928Z" fill="#1B4A47"/>
<path d="M25 0C20.0555 0 15.222 1.46622 11.1108 4.21326C6.99953 6.96029 3.79521 10.8648 1.90302 15.4329C0.0108317 20.0011 -0.484251 25.0277 0.480379 29.8773C1.44501 34.7268 3.82603 39.1814 7.32234 42.6777C10.8187 46.174 15.2732 48.555 20.1227 49.5196C24.9723 50.4843 29.9989 49.9892 34.5671 48.097C39.1352 46.2048 43.0397 43.0005 45.7867 38.8892C48.5338 34.778 50 29.9445 50 25C49.9927 18.3718 47.3565 12.0172 42.6696 7.33037C37.9828 2.64354 31.6282 0.00727899 25 0ZM25 48.6607C20.451 48.6607 15.602 47.1413 11.8197 44.614C8.03733 42.0867 4.81048 38.1313 3.06966 33.9286C1.32885 29.7259 1.01556 25.1758 1.90302 20.7143C2.79048 16.2527 5.2102 11.4237 8.42681 8.20708C11.6434 4.99048 15.6612 2.31603 20.1227 1.42857C24.5843 0.541112 30.3644 1.47347 34.5671 3.21429C38.7698 4.9551 42.4727 8.5391 45 12.3214C47.5273 16.1038 48.5714 20.451 48.5714 25C48.5648 31.0979 45.8637 37.4738 41.5518 41.7857C37.2399 46.0976 31.098 48.6541 25 48.6607Z" fill="#1B4A47"/>
<path d="M69.254 31.698C68.306 31.698 67.424 31.536 66.608 31.212C65.804 30.876 65.096 30.408 64.484 29.808C63.884 29.208 63.416 28.512 63.08 27.72C62.744 26.916 62.576 26.052 62.576 25.128C62.576 24.204 62.744 23.346 63.08 22.554C63.416 21.75 63.884 21.054 64.484 20.466C65.084 19.878 65.786 19.422 66.59 19.098C67.406 18.762 68.288 18.594 69.236 18.594C70.244 18.594 71.138 18.756 71.918 19.08C72.71 19.404 73.4 19.848 73.988 20.412L72.098 22.32C71.762 21.96 71.354 21.678 70.874 21.474C70.406 21.27 69.86 21.168 69.236 21.168C68.684 21.168 68.174 21.264 67.706 21.456C67.25 21.636 66.854 21.9 66.518 22.248C66.194 22.596 65.936 23.016 65.744 23.508C65.564 24 65.474 24.54 65.474 25.128C65.474 25.728 65.564 26.274 65.744 26.766C65.936 27.258 66.194 27.678 66.518 28.026C66.854 28.374 67.25 28.644 67.706 28.836C68.174 29.028 68.684 29.124 69.236 29.124C69.884 29.124 70.448 29.022 70.928 28.818C71.408 28.614 71.822 28.332 72.17 27.972L74.078 29.88C73.466 30.444 72.764 30.888 71.972 31.212C71.192 31.536 70.286 31.698 69.254 31.698Z" fill="#0D0D0D"/>
<path d="M75.3822 31.5V22.752H78.1362V31.5H75.3822ZM78.1362 26.694L76.9842 25.794C77.2122 24.774 77.5962 23.982 78.1362 23.418C78.6762 22.854 79.4262 22.572 80.3862 22.572C80.8062 22.572 81.1722 22.638 81.4842 22.77C81.8082 22.89 82.0902 23.082 82.3302 23.346L80.6922 25.416C80.5722 25.284 80.4222 25.182 80.2422 25.11C80.0622 25.038 79.8582 25.002 79.6302 25.002C79.1742 25.002 78.8082 25.146 78.5322 25.434C78.2682 25.71 78.1362 26.13 78.1362 26.694Z" fill="#0D0D0D"/>
<path d="M86.4717 31.68C85.6677 31.68 84.9477 31.482 84.3117 31.086C83.6877 30.69 83.1897 30.15 82.8177 29.466C82.4577 28.782 82.2777 28.002 82.2777 27.126C82.2777 26.25 82.4577 25.47 82.8177 24.786C83.1897 24.102 83.6877 23.562 84.3117 23.166C84.9477 22.77 85.6677 22.572 86.4717 22.572C87.0597 22.572 87.5877 22.686 88.0557 22.914C88.5357 23.142 88.9257 23.46 89.2257 23.868C89.5257 24.264 89.6937 24.72 89.7297 25.236V29.016C89.6937 29.532 89.5257 29.994 89.2257 30.402C88.9377 30.798 88.5537 31.11 88.0737 31.338C87.5937 31.566 87.0597 31.68 86.4717 31.68ZM87.0297 29.196C87.6177 29.196 88.0917 29.004 88.4517 28.62C88.8117 28.224 88.9917 27.726 88.9917 27.126C88.9917 26.718 88.9077 26.358 88.7397 26.046C88.5837 25.734 88.3557 25.494 88.0557 25.326C87.7677 25.146 87.4317 25.056 87.0477 25.056C86.6637 25.056 86.3217 25.146 86.0217 25.326C85.7337 25.494 85.4997 25.734 85.3197 26.046C85.1517 26.358 85.0677 26.718 85.0677 27.126C85.0677 27.522 85.1517 27.876 85.3197 28.188C85.4877 28.5 85.7217 28.746 86.0217 28.926C86.3217 29.106 86.6577 29.196 87.0297 29.196ZM88.8837 31.5V29.142L89.2977 27.018L88.8837 24.894V22.752H91.5837V31.5H88.8837Z" fill="#0D0D0D"/>
<path d="M94.6388 31.5V21.996C94.6388 21.288 94.7948 20.652 95.1068 20.088C95.4308 19.512 95.8808 19.062 96.4568 18.738C97.0328 18.402 97.7168 18.234 98.5088 18.234C99.1088 18.234 99.6308 18.336 100.075 18.54C100.531 18.732 100.927 19.002 101.263 19.35L99.5348 21.078C99.4148 20.958 99.2768 20.868 99.1208 20.808C98.9768 20.736 98.8028 20.7 98.5988 20.7C98.2268 20.7 97.9328 20.808 97.7168 21.024C97.5008 21.24 97.3928 21.534 97.3928 21.906V31.5H94.6388ZM92.7128 25.092V22.752H99.9128V25.092H92.7128Z" fill="#0D0D0D"/>
<path d="M102.095 31.5V19.134H104.849V31.5H102.095ZM100.115 25.092V22.752H106.829V25.092H100.115Z" fill="#0D0D0D"/>
<path d="M114.324 31.698C113.376 31.698 112.494 31.536 111.678 31.212C110.874 30.876 110.166 30.408 109.554 29.808C108.954 29.208 108.486 28.512 108.15 27.72C107.814 26.916 107.646 26.052 107.646 25.128C107.646 24.204 107.814 23.346 108.15 22.554C108.486 21.75 108.954 21.054 109.554 20.466C110.154 19.878 110.856 19.422 111.66 19.098C112.476 18.762 113.358 18.594 114.306 18.594C115.314 18.594 116.208 18.756 116.988 19.08C117.78 19.404 118.47 19.848 119.058 20.412L117.168 22.32C116.832 21.96 116.424 21.678 115.944 21.474C115.476 21.27 114.93 21.168 114.306 21.168C113.754 21.168 113.244 21.264 112.776 21.456C112.32 21.636 111.924 21.9 111.588 22.248C111.264 22.596 111.006 23.016 110.814 23.508C110.634 24 110.544 24.54 110.544 25.128C110.544 25.728 110.634 26.274 110.814 26.766C111.006 27.258 111.264 27.678 111.588 28.026C111.924 28.374 112.32 28.644 112.776 28.836C113.244 29.028 113.754 29.124 114.306 29.124C114.954 29.124 115.518 29.022 115.998 28.818C116.478 28.614 116.892 28.332 117.24 27.972L119.148 29.88C118.536 30.444 117.834 30.888 117.042 31.212C116.262 31.536 115.356 31.698 114.324 31.698Z" fill="#F7B501"/>
<path d="M120.452 31.5V22.752H123.206V31.5H120.452ZM121.838 21.546C121.406 21.546 121.046 21.402 120.758 21.114C120.482 20.814 120.344 20.454 120.344 20.034C120.344 19.602 120.482 19.242 120.758 18.954C121.046 18.666 121.406 18.522 121.838 18.522C122.27 18.522 122.624 18.666 122.9 18.954C123.176 19.242 123.314 19.602 123.314 20.034C123.314 20.454 123.176 20.814 122.9 21.114C122.624 21.402 122.27 21.546 121.838 21.546Z" fill="#F7B501"/>
<path d="M125.146 31.5V22.752H127.9V31.5H125.146ZM127.9 26.694L126.748 25.794C126.976 24.774 127.36 23.982 127.9 23.418C128.44 22.854 129.19 22.572 130.15 22.572C130.57 22.572 130.936 22.638 131.248 22.77C131.572 22.89 131.854 23.082 132.094 23.346L130.456 25.416C130.336 25.284 130.186 25.182 130.006 25.11C129.826 25.038 129.622 25.002 129.394 25.002C128.938 25.002 128.572 25.146 128.296 25.434C128.032 25.71 127.9 26.13 127.9 26.694Z" fill="#F7B501"/>
<path d="M136.811 31.698C135.911 31.698 135.095 31.5 134.363 31.104C133.631 30.708 133.055 30.162 132.635 29.466C132.215 28.77 132.005 27.99 132.005 27.126C132.005 26.25 132.215 25.47 132.635 24.786C133.067 24.09 133.649 23.544 134.381 23.148C135.113 22.752 135.935 22.554 136.847 22.554C137.531 22.554 138.155 22.674 138.719 22.914C139.295 23.142 139.805 23.49 140.249 23.958L138.485 25.722C138.281 25.494 138.041 25.326 137.765 25.218C137.501 25.11 137.195 25.056 136.847 25.056C136.451 25.056 136.097 25.146 135.785 25.326C135.485 25.494 135.245 25.734 135.065 26.046C134.897 26.346 134.813 26.7 134.813 27.108C134.813 27.516 134.897 27.876 135.065 28.188C135.245 28.5 135.491 28.746 135.803 28.926C136.115 29.106 136.463 29.196 136.847 29.196C137.207 29.196 137.525 29.136 137.801 29.016C138.089 28.884 138.335 28.704 138.539 28.476L140.285 30.24C139.829 30.72 139.313 31.086 138.737 31.338C138.161 31.578 137.519 31.698 136.811 31.698Z" fill="#F7B501"/>
<path d="M141.511 31.5V18.432H144.265V31.5H141.511Z" fill="#F7B501"/>
<path d="M150.524 31.698C149.576 31.698 148.73 31.506 147.986 31.122C147.254 30.726 146.678 30.18 146.258 29.484C145.838 28.788 145.628 28.002 145.628 27.126C145.628 26.25 145.832 25.47 146.24 24.786C146.66 24.09 147.224 23.544 147.932 23.148C148.64 22.752 149.438 22.554 150.326 22.554C151.19 22.554 151.952 22.74 152.612 23.112C153.272 23.484 153.788 24 154.16 24.66C154.544 25.32 154.736 26.076 154.736 26.928C154.736 27.084 154.724 27.252 154.7 27.432C154.688 27.6 154.658 27.798 154.61 28.026L147.068 28.044V26.154L153.44 26.136L152.252 26.928C152.24 26.424 152.162 26.01 152.018 25.686C151.874 25.35 151.658 25.098 151.37 24.93C151.094 24.75 150.752 24.66 150.344 24.66C149.912 24.66 149.534 24.762 149.21 24.966C148.898 25.158 148.652 25.434 148.472 25.794C148.304 26.154 148.22 26.592 148.22 27.108C148.22 27.624 148.31 28.068 148.49 28.44C148.682 28.8 148.946 29.082 149.282 29.286C149.63 29.478 150.038 29.574 150.506 29.574C150.938 29.574 151.328 29.502 151.676 29.358C152.024 29.202 152.33 28.974 152.594 28.674L154.106 30.186C153.674 30.69 153.152 31.068 152.54 31.32C151.928 31.572 151.256 31.698 150.524 31.698Z" fill="#F7B501"/>
</svg>
