<svg width="20" height="21" viewBox="0 0 20 21" fill="none" xmlns="http://www.w3.org/2000/svg">
<path d="M9.65625 6.84375H4.375C4 6.84375 3.6875 7.15625 3.6875 7.53125C3.6875 7.90625 4 8.21875 4.375 8.21875H9.625C10 8.21875 10.3125 7.90625 10.3125 7.53125C10.3125 7.15625 10.0312 6.84375 9.65625 6.84375Z" fill="#444444"/>
<path d="M6.8125 10.7188H4.375C4 10.7188 3.6875 11.0313 3.6875 11.4063C3.6875 11.7813 4 12.0937 4.375 12.0937H6.78125C7.15625 12.0937 7.46875 11.7813 7.46875 11.4063C7.46875 11.0313 7.1875 10.7188 6.8125 10.7188Z" fill="#444444"/>
<path d="M15.1875 11.2812C15.1562 11.25 15.125 11.2187 15.0625 11.2187C15.0313 11.1875 14.9688 11.1875 14.9375 11.1875C14.7188 11.1563 14.4688 11.2187 14.3125 11.375C14.2813 11.4062 14.25 11.4375 14.2188 11.4687C14.1875 11.5 14.1563 11.5625 14.1563 11.5937C14.125 11.625 14.125 11.6875 14.125 11.7188C14.125 11.7813 14.0938 11.8125 14.0938 11.8437C14.0938 11.9062 14.0938 11.9375 14.125 11.9688C14.125 12.0313 14.1563 12.0625 14.1563 12.0937C14.1875 12.125 14.1875 12.1875 14.2188 12.2187C14.25 12.25 14.2813 12.2812 14.3125 12.3125C14.4375 12.4375 14.625 12.5312 14.8125 12.5312C15 12.5312 15.1875 12.4687 15.3125 12.3125C15.3438 12.2812 15.375 12.25 15.4063 12.2187C15.4375 12.1875 15.4375 12.1562 15.4688 12.0937C15.5 12.0625 15.5 12 15.5 11.9688C15.5 11.9375 15.5 11.875 15.5 11.8437C15.5 11.6562 15.4375 11.4688 15.2813 11.3438C15.25 11.3438 15.2188 11.3125 15.1875 11.2812Z" fill="#444444"/>
<path d="M14.968 5.46881C14.1867 5.37506 13.468 5.75006 13.093 6.43756C12.9055 6.78131 13.0305 7.21881 13.3742 7.37506C13.718 7.56256 14.1555 7.43756 14.3117 7.09381C14.4055 6.93756 14.593 6.84381 14.7805 6.87506C14.968 6.90631 15.1555 7.06256 15.1555 7.21881C15.1867 7.43756 15.0617 7.56256 14.9367 7.62506C14.4055 7.87506 14.0305 8.50006 14.0305 9.06256V9.46881C14.0305 9.84381 14.343 10.1563 14.718 10.1563C15.093 10.1563 15.4055 9.84381 15.4055 9.46881V9.06256C15.4055 9.00006 15.468 8.90631 15.5305 8.87506C16.218 8.53131 16.6242 7.81256 16.5305 7.03131C16.468 6.21881 15.7805 5.56256 14.968 5.46881Z" fill="#444444"/>
<path d="M17.5 2.96875H2.5C1.4375 2.96875 0.5625 3.84375 0.5625 4.90625V16.6875C0.5625 17.1875 0.84375 17.6562 1.3125 17.875C1.5 17.9687 1.6875 18 1.875 18C2.1875 18 2.46875 17.9062 2.71875 17.6875L5.375 15.5H17.5C18.5625 15.5 19.4375 14.625 19.4375 13.5625V4.9375C19.4375 3.84375 18.5625 2.96875 17.5 2.96875ZM18.0625 13.5625C18.0625 13.875 17.8125 14.125 17.5 14.125H5.09375C4.9375 14.125 4.78125 14.1875 4.65625 14.2812L1.96875 16.5V4.9375C1.96875 4.625 2.21875 4.375 2.53125 4.375H17.5313C17.8438 4.375 18.0938 4.625 18.0938 4.9375V13.5625H18.0625Z" fill="#444444"/>
</svg>
