<svg width="20" height="19" viewBox="0 0 20 19" fill="none" xmlns="http://www.w3.org/2000/svg">
<path d="M18.5625 10.1455C17.5938 8.52051 15.9062 7.52051 14.0312 7.48926C14 7.48926 13.9687 7.48926 13.9375 7.48926C13.9062 7.48926 13.875 7.48926 13.8437 7.48926C12.875 7.52051 11.9375 7.77051 11.1562 8.27051C10.5625 7.77051 9.875 7.36426 9.15625 7.11426C10.1875 6.48926 10.875 5.33301 10.875 4.05176C10.875 2.05176 9.25 0.426758 7.25 0.426758C5.25 0.426758 3.625 2.05176 3.625 4.05176C3.625 5.33301 4.3125 6.48926 5.34375 7.11426C4.3125 7.45801 3.375 8.11426 2.625 9.02051C1.4375 10.4268 0.78125 12.3643 0.75 14.4893C0.75 14.7705 0.90625 15.0205 1.125 15.1455C1.875 15.5205 4.46875 16.708 7.28125 16.708C8.125 16.708 9.03125 16.6143 9.90625 16.4268C10.875 17.5518 12.25 18.208 13.7188 18.2705C13.75 18.2705 13.8125 18.2705 13.8437 18.2705C13.875 18.2705 13.9062 18.2705 13.9375 18.2705C13.9687 18.2705 14 18.2705 14.0312 18.2705C15.7188 18.2393 17.2812 17.4268 18.2812 16.083C18.9688 15.1455 19.3125 14.0518 19.3125 12.9268C19.3125 11.8955 19.0312 10.958 18.5625 10.1455ZM11.5312 9.70801C11.7812 9.52051 12.0625 9.36426 12.375 9.20801C12.2187 9.58301 12.0937 9.92676 11.9687 10.3018C11.6562 10.2393 11.375 10.1768 11.0625 10.1143C11.1875 9.98926 11.3438 9.83301 11.5312 9.70801C11.5 9.70801 11.5 9.70801 11.5312 9.70801ZM14.625 12.8643C14.625 13.1768 14.5937 13.5205 14.5625 13.833C14.0625 13.8018 13.5312 13.8018 13.0312 13.833C13 13.5205 12.9688 13.1768 12.9688 12.8643C12.9688 12.5205 13 12.208 13.0312 11.8643C13.3125 11.8955 13.5938 11.8955 13.9062 11.8955C14.125 11.8955 14.3437 11.8955 14.5625 11.8643C14.625 12.208 14.625 12.5518 14.625 12.8643ZM13.375 10.4893C13.5 10.1143 13.6562 9.77051 13.8125 9.42676C14 9.77051 14.125 10.1455 14.25 10.4893C13.9687 10.5205 13.6562 10.5205 13.375 10.4893ZM14.25 15.208C14.125 15.583 13.9688 15.9268 13.8125 16.3018C13.625 15.958 13.5 15.583 13.375 15.208C13.6562 15.208 13.9687 15.208 14.25 15.208ZM9.96875 12.8643C9.96875 12.333 10.0625 11.833 10.2813 11.3643C10.75 11.5205 11.2188 11.6143 11.6875 11.708C11.625 12.083 11.5937 12.4893 11.5937 12.8643C11.5937 13.2393 11.625 13.6455 11.6562 14.0205C11.1875 14.1143 10.7188 14.2393 10.25 14.3643C10.0625 13.8955 9.96875 13.3955 9.96875 12.8643ZM11.9375 15.3955C12.0625 15.7705 12.1875 16.1455 12.3438 16.5205C11.8437 16.3018 11.4062 16.0205 11.0312 15.6143C11.3437 15.5205 11.6562 15.458 11.9375 15.3955ZM15.6875 15.3643C16.0625 15.4268 16.4375 15.4893 16.7812 15.6143C16.3438 16.083 15.8125 16.4268 15.2188 16.6143C15.4062 16.208 15.5625 15.7705 15.6875 15.3643ZM15.9687 13.9893C16 13.6143 16.0312 13.2393 16.0312 12.8643C16.0312 12.4893 16 12.1143 15.9687 11.7393C16.5312 11.6455 17.0625 11.5205 17.5938 11.3643C17.7812 11.833 17.9062 12.3643 17.9062 12.8643C17.9062 13.3955 17.8125 13.8955 17.625 14.3643C17.0625 14.208 16.5312 14.083 15.9687 13.9893ZM16.7812 10.1143C16.4062 10.208 16.0625 10.3018 15.6875 10.3643C15.5625 9.95801 15.4062 9.52051 15.2188 9.11426C15.8125 9.33301 16.3438 9.67676 16.7812 10.1143ZM7.25 1.83301C8.46875 1.83301 9.46875 2.83301 9.46875 4.05176C9.46875 5.27051 8.46875 6.27051 7.25 6.27051C6.03125 6.27051 5.03125 5.27051 5.03125 4.05176C5.03125 2.83301 6.03125 1.83301 7.25 1.83301ZM2.125 14.0518C2.25 12.4268 2.78125 10.9893 3.65625 9.92676C4.59375 8.80176 5.875 8.20801 7.21875 8.20801C8.25 8.20801 9.1875 8.55176 10 9.17676C9.71875 9.45801 9.46875 9.80176 9.28125 10.1455C8.78125 10.958 8.53125 11.9268 8.53125 12.8643C8.53125 13.6455 8.71875 14.4268 9.03125 15.1143C8.40625 15.208 7.8125 15.2705 7.21875 15.2705C5.125 15.2705 3.09375 14.4893 2.125 14.0518Z" fill="#444444"/>
</svg>
